<svg width="48" height="48" viewBox="0 0 48 48" fill="none" xmlns="http://www.w3.org/2000/svg">
<path d="M24 0.666992C11.12 0.666992 0.666656 11.1203 0.666656 24.0003C0.666656 36.8803 11.12 47.3337 24 47.3337C36.88 47.3337 47.3333 36.8803 47.3333 24.0003C47.3333 11.1203 36.88 0.666992 24 0.666992ZM24 7.66699C27.8733 7.66699 31 10.7937 31 14.667C31 18.5403 27.8733 21.667 24 21.667C20.1267 21.667 17 18.5403 17 14.667C17 10.7937 20.1267 7.66699 24 7.66699ZM24 40.8003C18.1667 40.8003 13.01 37.8137 9.99999 33.287C10.07 28.6437 19.3333 26.1003 24 26.1003C28.6433 26.1003 37.93 28.6437 38 33.287C34.99 37.8137 29.8333 40.8003 24 40.8003Z" fill="#0B6AB0"/>
</svg>
