<svg width="140" height="27" viewBox="0 0 140 27" fill="none" xmlns="http://www.w3.org/2000/svg">
<path d="M0.592 0.799998H5.56V26H0.592V0.799998ZM16.5842 5.12H8.59216V0.799998H29.5442V5.12H21.5522V26H16.5842V5.12ZM50.1553 26.288C47.5153 26.288 45.4513 25.556 43.9633 24.092C42.4753 22.604 41.7313 20.54 41.7313 17.9H46.6273C46.6273 19.148 46.9393 20.132 47.5633 20.852C48.2113 21.548 49.0993 21.896 50.2273 21.896H54.2233C55.2793 21.896 56.1313 21.68 56.7793 21.248C57.4513 20.792 57.7873 20.192 57.7873 19.448V18.224C57.7873 17.048 56.9233 16.316 55.1953 16.028L48.5713 14.912C46.4113 14.552 44.7673 13.868 43.6393 12.86C42.5353 11.828 41.9833 10.52 41.9833 8.936V6.92C41.9833 5.648 42.3193 4.532 42.9913 3.572C43.6873 2.588 44.6593 1.832 45.9073 1.304C47.1793 0.775999 48.6433 0.512 50.2993 0.512H54.3673C55.9273 0.512 57.3073 0.835999 58.5073 1.484C59.7073 2.132 60.6313 3.044 61.2793 4.22C61.9513 5.372 62.2873 6.716 62.2873 8.252H57.3913C57.3913 7.244 57.1153 6.44 56.5633 5.84C56.0113 5.216 55.2793 4.904 54.3673 4.904H50.2993C49.2913 4.904 48.4753 5.12 47.8513 5.552C47.2513 5.984 46.9513 6.56 46.9513 7.28V8.252C46.9513 9.452 47.7793 10.196 49.4353 10.484L56.0233 11.636C58.2073 12.02 59.8753 12.704 61.0273 13.688C62.1793 14.648 62.7553 15.896 62.7553 17.432V19.808C62.7553 21.08 62.3953 22.208 61.6753 23.192C60.9793 24.176 59.9953 24.944 58.7233 25.496C57.4513 26.024 55.9753 26.288 54.2953 26.288H50.1553ZM66.2203 0.799998H71.1883V11.204H82.9243V0.799998H87.8923V26H82.9243V15.524H71.1883V26H66.2203V0.799998ZM101.233 26.288C99.3374 26.288 97.6574 25.892 96.1934 25.1C94.7534 24.284 93.6254 23.156 92.8094 21.716C92.0174 20.252 91.6214 18.56 91.6214 16.64V10.16C91.6214 8.24 92.0174 6.56 92.8094 5.12C93.6254 3.656 94.7534 2.528 96.1934 1.736C97.6574 0.92 99.3374 0.512 101.233 0.512H105.049C106.945 0.512 108.613 0.92 110.053 1.736C111.517 2.528 112.645 3.656 113.437 5.12C114.253 6.56 114.661 8.24 114.661 10.16V16.64C114.661 18.56 114.253 20.252 113.437 21.716C112.645 23.156 111.517 24.284 110.053 25.1C108.613 25.892 106.945 26.288 105.049 26.288H101.233ZM105.049 21.896C106.441 21.896 107.557 21.392 108.397 20.384C109.261 19.376 109.693 18.056 109.693 16.424V10.376C109.693 8.744 109.261 7.424 108.397 6.416C107.557 5.408 106.441 4.904 105.049 4.904H101.233C99.8414 4.904 98.7134 5.408 97.8494 6.416C97.0094 7.424 96.5894 8.744 96.5894 10.376V16.424C96.5894 18.056 97.0094 19.376 97.8494 20.384C98.7134 21.392 99.8414 21.896 101.233 21.896H105.049ZM118.392 0.799998H131.676C133.14 0.799998 134.436 1.088 135.564 1.664C136.692 2.216 137.568 3.02 138.192 4.076C138.816 5.108 139.128 6.296 139.128 7.64V10.988C139.128 12.38 138.804 13.616 138.156 14.696C137.508 15.752 136.596 16.58 135.42 17.18C134.268 17.756 132.924 18.044 131.388 18.044H123.36V26H118.392V0.799998ZM131.316 13.724C132.156 13.724 132.84 13.46 133.368 12.932C133.896 12.38 134.16 11.66 134.16 10.772V7.856C134.16 7.016 133.92 6.356 133.44 5.876C132.984 5.372 132.372 5.12 131.604 5.12H123.36V13.724H131.316Z" fill="#0B6AB0"/>
</svg>
